HIERARCHY
ROOT SimulationBone
{
	OFFSET 0.000000 0.000000 0.000000
	CHANNELS 6 Xposition Yposition Zposition Zrotation Yrotation Xrotation 
	JOINT Hips
	{
		OFFSET 0.000000 0.000000 0.000000
		CHANNELS 6 Xposition Yposition Zposition Zrotation Yrotation Xrotation 
		JOINT RightUpLeg
		{
			OFFSET 0.103458 1.857820 10.548502
			CHANNELS 3 Zrotation Yrotation Xrotation
			JOINT RightLeg
			{
				OFFSET 43.500000 -0.000023 -0.000011
				CHANNELS 3 Zrotation Yrotation Xrotation
				JOINT RightFoot
				{
					OFFSET 42.372192 0.000038 0.000002
					CHANNELS 3 Zrotation Yrotation Xrotation
					JOINT RightToe
					{
						OFFSET 17.299992 -0.000004 0.000006
						CHANNELS 3 Zrotation Yrotation Xrotation
						End Site
						{
							OFFSET 0.000000 0.000000 0.000000
						}
					}
				}
			}
		}
		JOINT LeftUpLeg
		{
			OFFSET 0.103461 1.857814 -10.548508
			CHANNELS 3 Zrotation Yrotation Xrotation
			JOINT LeftLeg
			{
				OFFSET 43.500042 -0.000015 0.000008
				CHANNELS 3 Zrotation Yrotation Xrotation
				JOINT LeftFoot
				{
					OFFSET 42.372253 0.000008 0.000006
					CHANNELS 3 Zrotation Yrotation Xrotation
					JOINT LeftToe
					{
						OFFSET 17.299973 -0.000014 0.000011
						CHANNELS 3 Zrotation Yrotation Xrotation
						End Site
						{
							OFFSET 0.000000 0.000000 0.000000
						}
					}
				}
			}
		}
		JOINT Spine
		{
			OFFSET 6.901966 -2.603737 -0.000007
			CHANNELS 3 Zrotation Yrotation Xrotation
			JOINT Spine1
			{
				OFFSET 12.588102 0.000017 0.000001
				CHANNELS 3 Zrotation Yrotation Xrotation
				JOINT Spine2
				{
					OFFSET 12.343197 -0.000013 0.000000
					CHANNELS 3 Zrotation Yrotation Xrotation
					JOINT Neck
					{
						OFFSET 25.832905 -0.000008 0.000000
						CHANNELS 3 Zrotation Yrotation Xrotation
						JOINT Head
						{
							OFFSET 11.766610 0.000009 -0.000002
							CHANNELS 3 Zrotation Yrotation Xrotation
							End Site
							{
								OFFSET 0.000000 0.000000 0.000000
							}
						}
					}
					JOINT RightShoulder
					{
						OFFSET 19.745903 -1.480377 6.000115
						CHANNELS 3 Zrotation Yrotation Xrotation
						JOINT RightArm
						{
							OFFSET 11.284125 -0.000014 -0.000024
							CHANNELS 3 Zrotation Yrotation Xrotation
							JOINT RightForeArm
							{
								OFFSET 33.000046 -0.000012 0.000029
								CHANNELS 3 Zrotation Yrotation Xrotation
								JOINT RightHand
								{
									OFFSET 25.199989 0.000034 0.000012
									CHANNELS 3 Zrotation Yrotation Xrotation
									End Site
									{
										OFFSET 0.000000 0.000000 0.000000
									}
								}
							}
						}
					}
					JOINT LeftShoulder
					{
						OFFSET 19.746098 -1.480362 -6.000071
						CHANNELS 3 Zrotation Yrotation Xrotation
						JOINT LeftArm
						{
							OFFSET 11.284137 -0.000006 -0.000008
							CHANNELS 3 Zrotation Yrotation Xrotation
							JOINT LeftForeArm
							{
								OFFSET 33.000095 0.000017 0.000000
								CHANNELS 3 Zrotation Yrotation Xrotation
								JOINT LeftHand
								{
									OFFSET 25.199778 0.000144 0.000423
									CHANNELS 3 Zrotation Yrotation Xrotation
									End Site
									{
										OFFSET 0.000000 0.000000 0.000000
									}
								}
							}
						}
					}
				}
			}
		}
	}
}
MOTION
Frames: 14
Frame Time: 0.016667
231.919734 0.000000 -295.665690 0.000000 -19.849326 0.000000 -16.076840 75.121338 -10.513274 66.815199 -21.754785 177.943542 151.662560 -2.578197 -173.763482 -48.887723 -3.945443 -3.102684 92.277521 -0.833504 -22.695805 21.454557 0.003108 0.000016 137.774094 1.828996 -178.241709 -111.944511 -3.279517 5.376201 78.813750 -2.288573 5.232358 21.454548 -0.003094 0.000001 12.084657 -1.009614 0.079963 14.158329 -2.021310 0.035621 13.840023 -2.021192 0.047821 -19.390149 -28.258288 3.779375 -25.461228 12.884441 -12.259660 -89.879438 -87.356373 -92.061540 -83.586802 -0.185450 -29.004244 -99.716458 -1.849824 2.911101 -15.369218 -7.554955 43.565128 138.895336 72.628922 -40.608563 -28.586697 -62.037623 -2.367595 -82.984031 10.056180 -2.699669 -21.097843 12.497329 -55.546304 
233.894745 0.000000 -292.704702 0.000000 -23.046281 0.000000 -16.630159 76.670476 -9.322042 65.834695 -18.780441 179.012762 157.180747 -5.714855 -173.299998 -41.479437 -4.382475 -4.327486 86.619242 -1.001601 -22.481163 21.454549 0.003107 0.000017 132.875558 1.226074 -179.825687 -112.361854 -3.513924 6.752031 79.146293 -3.306049 5.047031 21.454540 -0.003095 0.000004 11.857143 -0.563412 0.019622 13.702062 -1.125019 -0.027704 13.383906 -1.125302 -0.020916 -20.740994 -27.700648 4.740441 -24.743346 12.427185 -11.125116 -93.295817 -86.910492 -88.675586 -81.863095 0.345778 -28.068805 -93.754108 -4.579499 2.626315 -14.722753 -9.951561 40.327254 140.698586 73.255761 -38.730318 -20.286335 -64.199855 -10.648561 -85.187947 8.278607 -2.675921 -24.488884 11.583886 -56.061144 
235.838469 0.000000 -289.714621 0.000000 -26.198897 0.000000 -17.053630 78.172089 -8.141062 65.265870 -15.507920 179.996748 162.475229 -9.388104 -175.105874 -34.540372 -4.509173 -4.751433 80.186440 -1.773582 -21.639875 21.454550 0.003108 0.000018 128.336153 0.904495 178.907503 -111.327602 -3.398513 7.428101 79.917065 -3.855967 4.908937 21.454539 -0.003095 0.000003 11.736402 -0.036417 -0.077554 13.460016 -0.063508 -0.158818 13.141920 -0.064598 -0.158438 -21.805133 -26.657923 5.560810 -24.057916 12.450365 -10.088434 -99.567748 -86.325268 -82.437053 -80.008432 0.888318 -24.587588 -86.554752 -8.885005 2.815170 -14.297040 -11.657304 37.407931 141.739727 73.701207 -37.640597 -12.549797 -64.607065 -18.803266 -87.109445 6.933663 -2.662227 -26.464636 10.656242 -56.079021 
237.752849 0.000000 -286.694459 0.000000 -29.281636 0.000000 -17.348698 79.552282 -7.017051 64.973220 -12.315084 -179.118248 167.632144 -12.816805 -177.974656 -28.399447 -4.648645 -4.980056 73.698210 -2.447923 -20.245583 21.454554 0.003109 0.000019 124.053739 0.909982 177.896790 -109.018509 -3.098820 7.712946 80.953210 -4.116458 4.878955 21.454542 -0.003094 -0.000000 11.666559 0.486963 -0.208196 13.319313 0.994652 -0.358880 13.001162 0.992338 -0.364888 -22.570166 -25.030673 6.177002 -23.282392 12.383056 -8.885294 -108.241215 -85.800294 -73.777705 -77.611228 1.639629 -19.751124 -78.889736 -13.606985 2.911936 -14.047721 -12.827702 34.942834 142.198500 74.078006 -37.148128 -6.715191 -63.742176 -25.493925 -88.730924 5.920900 -2.661512 -27.529486 9.734003 -55.892958 
239.639828 0.000000 -283.643227 0.000000 -32.271513 0.000000 -17.525451 80.737160 -5.995380 64.777499 -9.559692 -178.358558 172.489816 -15.454097 179.452798 -23.393903 -4.978904 -5.668047 67.931988 -2.380347 -18.530763 21.454558 0.003108 0.000018 119.929747 1.274988 177.082859 -105.614408 -2.767896 7.918489 82.082849 -4.269360 5.019264 21.454550 -0.003092 -0.000002 11.592144 0.922184 -0.369600 13.168049 1.880454 -0.631778 12.849777 1.876473 -0.643134 -23.034608 -22.717431 6.536112 -22.323614 11.642532 -7.272502 -120.583085 -85.460959 -61.408408 -74.235037 2.797466 -14.709910 -71.587574 -17.477013 2.767417 -13.909770 -13.606689 33.057981 142.313177 74.489629 -37.003165 -3.281229 -62.138552 -30.226783 -90.032650 5.141354 -2.666116 -28.174977 8.811920 -55.777841 
241.501351 0.000000 -280.559938 0.000000 -35.148853 0.000000 -17.594230 81.664833 -5.094988 64.550249 -7.454718 -177.784873 176.755507 -17.111848 178.289341 -19.922164 -5.482220 -7.138146 63.787754 -1.276222 -16.797443 21.454557 0.003106 0.000016 115.991030 1.947547 176.400006 -101.261665 -2.451787 8.296197 83.147189 -4.493442 5.341575 21.454561 -0.003088 -0.000001 11.487344 1.213575 -0.555666 12.954305 2.481776 -0.971984 12.635935 2.475719 -0.986969 -23.315533 -19.735597 6.655318 -21.162719 9.903287 -5.166960 -137.542203 -85.159802 -44.371848 -69.594703 4.537746 -10.322046 -65.544375 -19.574288 2.610699 -13.800465 -14.115101 31.738148 142.323043 74.972859 -36.959819 -2.045939 -60.188084 -33.146539 -91.062385 4.517905 -2.668042 -28.765937 7.883544 -55.836595 
243.339360 0.000000 -277.443604 0.000000 -37.897743 0.000000 -17.533220 82.321442 -4.239523 64.505837 -5.720057 -177.515187 -179.589005 -18.156490 178.129489 -18.651891 -5.774019 -8.295872 62.465549 0.072155 -15.146035 21.454553 0.003105 0.000016 112.758260 2.573106 175.779672 -95.977503 -1.710681 8.934540 84.037772 -4.942284 5.669046 21.454568 -0.003085 0.000001 11.442981 1.422112 -0.744107 12.860347 2.918153 -1.325689 12.541908 2.909944 -1.343305 -23.938959 -16.588228 6.763086 -19.880804 7.928955 -2.998377 -152.145723 -84.466028 -29.687623 -64.094494 6.883781 -6.520710 -61.530667 -20.371601 2.558865 -13.625512 -14.414858 30.426081 142.365783 75.311684 -36.893107 -2.416465 -57.888822 -34.535047 -92.142495 4.055293 -2.683797 -29.209928 6.960583 -55.546335 
245.155798 0.000000 -274.293236 0.000000 -40.506174 0.000000 -17.311942 82.688369 -3.372581 64.907464 -4.096244 -177.629168 -176.419239 -18.809856 178.208430 -20.116461 -5.493267 -8.082799 64.497428 0.776857 -13.564180 21.454549 0.003107 0.000019 110.756774 2.829444 175.250417 -89.790278 -0.255090 9.842410 84.808527 -5.622916 5.919146 21.454564 -0.003086 0.000002 11.545102 1.607790 -0.913191 13.059042 3.308382 -1.639410 12.740526 3.298278 -1.659379 -25.189732 -13.786030 6.992336 -18.617524 6.524028 -1.185323 -158.709795 -83.425393 -23.085963 -58.244229 9.815228 -3.012028 -59.929109 -20.564439 2.523073 -13.377747 -14.557192 28.717840 142.512466 75.305664 -36.744655 -3.729012 -55.188677 -34.718373 -93.525860 3.759746 -2.724902 -29.334735 6.121424 -54.460420 
246.952610 0.000000 -271.107846 0.000000 -42.965919 0.000000 -16.962854 82.679932 -2.593464 65.744346 -2.806042 -178.097915 -173.625676 -18.645593 178.164009 -23.905913 -4.386879 -7.123035 67.583724 0.868800 -12.330390 21.454548 0.003109 0.000021 109.998836 2.809906 175.038952 -83.005806 1.214876 10.474933 86.106445 -6.014078 6.578886 21.454558 -0.003090 0.000001 11.745274 1.707478 -1.061670 13.454423 3.526861 -1.918076 13.135876 3.515082 -1.939362 -26.125230 -11.413985 7.118492 -18.006564 5.509993 0.215103 -160.961109 -82.021999 -20.829796 -52.308115 13.099543 0.515297 -59.832442 -20.502990 2.502015 -13.438136 -14.639286 27.374543 142.662773 75.069184 -36.608288 -5.234218 -52.403949 -34.258626 -94.914200 3.565123 -2.772762 -29.028026 5.665160 -53.030011 
248.731739 0.000000 -267.886447 0.000000 -45.272210 0.000000 -16.555099 82.277164 -2.002436 66.894246 -2.031033 -178.855998 -171.230722 -17.317445 178.046200 -29.435991 -2.526158 -6.348964 69.384017 0.706360 -11.705079 21.454551 0.003109 0.000018 110.420775 2.643639 175.389401 -75.903418 2.139097 10.238551 87.940197 -5.734577 7.799817 21.454554 -0.003093 -0.000000 11.969677 1.667875 -1.178320 13.900246 3.465304 -2.148261 13.581767 3.452142 -2.169171 -25.858857 -9.460225 6.974620 -18.516240 4.555910 1.242937 -162.261461 -80.140567 -19.533816 -46.506763 16.485575 4.250629 -60.138610 -20.406612 2.504095 -14.074309 -14.756405 27.139417 142.942788 74.806700 -36.341822 -6.484574 -49.902856 -33.502445 -95.927000 3.410401 -2.806048 -28.226486 5.810345 -51.735191 
250.495127 0.000000 -264.628051 0.000000 -47.423285 0.000000 -16.172749 81.795036 -1.577020 68.120187 -1.353829 -179.726910 -169.654919 -15.496098 178.945560 -36.417403 -1.137637 -5.880092 70.156615 0.464304 -11.438178 21.454555 0.003108 0.000015 112.179893 2.199291 176.501186 -68.183298 2.918289 9.584650 87.157953 -5.284729 7.751612 21.454553 -0.003092 -0.000001 12.175996 1.599548 -1.187453 14.313539 3.333771 -2.168378 13.995111 3.320490 -2.188493 -24.810119 -7.896000 6.639000 -19.325993 3.608946 1.976767 -163.776678 -78.107327 -18.012889 -41.104566 19.946987 8.076396 -60.276753 -20.305053 2.505409 -14.716153 -14.889889 27.517306 144.516732 74.760528 -34.745601 -7.745189 -47.842288 -32.312702 -96.405394 3.321760 -2.822086 -27.118109 6.260859 -50.309058 
252.244718 0.000000 -261.331669 0.000000 -49.419880 0.000000 -15.858323 81.489853 -1.253286 69.246173 -0.346523 179.476534 -169.165798 -13.923352 -178.408315 -44.650022 -1.260675 -5.362957 70.625511 0.176734 -11.207151 21.454556 0.003109 0.000016 115.227289 1.345319 178.512985 -60.252658 3.818572 9.073610 81.812247 -5.282365 4.933901 21.454551 -0.003086 -0.000001 12.331334 1.619867 -1.031022 14.628906 3.357133 -1.849327 14.310404 3.345771 -1.869589 -23.527751 -6.729190 6.186423 -19.612568 2.713804 2.432404 -165.752849 -76.262179 -16.010307 -36.287511 23.559425 11.854485 -59.903021 -20.203814 2.484239 -14.795770 -14.985909 27.874723 148.356020 75.056440 -30.822756 -9.229441 -46.313261 -30.577666 -96.255101 3.322059 -2.818997 -25.876218 6.683190 -48.370995 
253.982457 0.000000 -257.996312 0.000000 -51.264709 0.000000 -15.503367 81.049332 -0.957717 70.385691 0.853986 178.835050 -169.386028 -12.493701 -175.365380 -53.852202 -2.116645 -4.490570 70.802361 -0.310621 -10.901253 21.454555 0.003111 0.000019 118.520023 0.399003 -178.538071 -56.132123 4.197348 8.097008 78.124659 -5.390643 1.367434 21.454551 -0.003078 -0.000000 12.410745 1.711529 -0.789862 14.794721 3.510025 -1.354573 14.476082 3.501641 -1.375772 -21.837180 -6.129211 5.629707 -19.822126 2.141807 2.446692 -167.248410 -74.577705 -14.487921 -31.761509 27.353645 15.782241 -59.046834 -20.199827 2.450970 -14.602666 -14.914898 28.277727 153.233721 75.483647 -25.833904 -10.440519 -45.412687 -28.538438 -95.419477 3.334921 -2.779146 -24.309009 7.109277 -45.786708 
255.710285 0.000000 -254.620995 0.000000 -52.961987 0.000000 -15.009632 80.189865 -0.639029 71.631435 2.036762 178.379765 -170.032915 -11.042337 -173.524618 -63.715916 -2.552698 -3.253750 70.656163 -1.085314 -10.416054 21.454552 0.003111 0.000022 121.153033 -0.348040 -174.910452 -58.833266 3.525013 6.088847 81.742374 -4.471528 -0.736752 21.454553 -0.003075 0.000001 12.400890 1.833898 -0.557132 14.782404 3.723924 -0.875380 14.463624 3.718428 -0.897889 -19.541288 -6.160379 4.967255 -20.538906 2.048840 1.948524 -167.559602 -72.961797 -14.173471 -27.164836 31.257015 20.032598 -57.805046 -20.359227 2.414848 -14.525097 -14.595056 28.858909 157.495370 75.836269 -21.475589 -11.015247 -45.135259 -26.470399 -93.880744 3.373049 -2.702287 -22.167347 7.585118 -42.651927 
